<?xml version="1.0" standalone="no"?>
<!DOCTYPE svg PUBLIC "-//W3C//DTD SVG 20010904//EN"
 "http://www.w3.org/TR/2001/REC-SVG-20010904/DTD/svg10.dtd">
<svg version="1.0" xmlns="http://www.w3.org/2000/svg"
 width="500.000000pt" height="500.000000pt" viewBox="0 0 500.000000 500.000000"
 preserveAspectRatio="xMidYMid meet">

<g transform="translate(0.000000,500.000000) scale(0.100000,-0.100000)"
fill="#000000" stroke="none">
<path d="M2280 4334 c-765 -93 -1405 -647 -1599 -1384 -75 -286 -82 -591 -21
-888 142 -682 689 -1251 1369 -1423 492 -125 1034 -45 1451 214 409 255 711
656 834 1108 43 157 57 254 63 429 11 333 -51 629 -192 911 -228 454 -616 789
-1105 952 -188 63 -296 79 -545 82 -121 2 -236 1 -255 -1z m515 -129 c564 -95
1046 -456 1295 -970 329 -678 194 -1486 -336 -2019 -274 -275 -608 -444 -999
-507 -103 -17 -407 -17 -510 -1 -548 88 -1013 407 -1285 882 -143 251 -216
512 -227 820 -14 387 98 760 325 1080 86 122 290 326 412 413 118 83 340 195
481 242 261 86 564 108 844 60z"/>
<path d="M2387 4113 c-4 -3 -7 -15 -7 -25 0 -14 8 -18 40 -18 l40 0 0 -191 0
-190 23 3 22 3 -4 188 -4 187 42 0 c37 0 41 2 41 25 0 25 0 25 -93 25 -52 0
-97 -3 -100 -7z"/>
<path d="M2127 4065 c-43 -13 -80 -25 -82 -27 -2 -2 22 -92 53 -201 l56 -199
29 6 c73 15 137 39 137 51 0 24 -18 26 -72 10 -28 -8 -55 -12 -58 -8 -11 12
-40 125 -35 133 3 4 25 13 49 19 38 9 43 14 39 32 -4 15 -11 19 -27 14 -11 -3
-35 -8 -52 -11 -30 -6 -30 -5 -47 56 -10 33 -15 65 -12 70 3 4 27 13 55 20 55
13 60 17 51 41 -5 15 -14 14 -84 -6z"/>
<path d="M2936 4032 c-7 -12 -136 -373 -136 -382 0 -16 39 -18 45 -1 4 9 36
97 71 195 51 139 62 181 52 187 -16 11 -26 11 -32 1z"/>
<path d="M3119 3943 c-11 -12 -11 -17 -2 -20 7 -3 23 -13 35 -22 l21 -18 -98
-158 c-93 -149 -98 -158 -80 -171 10 -8 19 -13 20 -11 2 1 44 70 95 152 51 83
97 154 101 159 4 5 21 -1 37 -13 27 -18 31 -19 43 -5 10 12 10 17 -2 28 -15
14 -146 96 -153 96 -2 0 -10 -7 -17 -17z"/>
<path d="M1802 3928 c-40 -11 -75 -62 -67 -98 9 -37 144 -258 168 -275 33 -23
81 -18 116 11 43 36 41 71 -10 160 l-41 72 -34 -20 c-34 -20 -43 -41 -24 -53
6 -4 17 -2 24 4 10 9 19 3 38 -27 38 -56 43 -80 22 -103 -38 -42 -61 -24 -154
129 -69 113 -73 146 -23 158 22 6 31 2 53 -24 27 -33 44 -40 55 -22 7 12 -20
58 -44 77 -24 18 -43 20 -79 11z"/>
<path d="M2488 3428 c-49 -13 -105 -69 -118 -119 -29 -107 51 -209 165 -209
74 0 85 11 85 80 l0 60 -45 0 c-25 0 -45 -4 -45 -10 0 -5 16 -10 35 -10 35 0
35 0 35 -44 0 -25 -5 -48 -11 -51 -20 -13 -95 -8 -127 9 -96 50 -97 203 -1
260 26 15 43 18 96 13 69 -7 77 5 15 23 -20 5 -39 9 -42 9 -3 -1 -22 -5 -42
-11z"/>
<path d="M2465 2792 c-55 -11 -71 -70 -35 -130 l20 -33 -35 -33 c-44 -42 -48
-89 -10 -130 28 -30 88 -36 121 -12 17 13 21 13 36 -7 15 -18 18 -19 18 -5 0
9 -4 20 -10 23 -5 3 -10 35 -10 71 0 62 1 64 25 64 14 0 25 5 25 11 0 6 -14 9
-32 7 -32 -3 -33 -5 -36 -52 l-3 -49 -55 89 c-60 99 -67 135 -30 159 18 12 30
13 50 5 33 -12 36 -12 36 -1 0 13 -51 28 -75 23z m35 -247 c38 -66 31 -85 -31
-85 -44 0 -69 27 -69 72 0 30 31 68 54 68 8 0 29 -25 46 -55z"/>
<path d="M2451 2089 c-46 -28 -68 -56 -80 -104 -27 -107 51 -205 164 -205 74
0 85 11 85 80 l0 60 -45 0 c-25 0 -45 -4 -45 -10 0 -5 16 -10 36 -10 l35 0 -3
-47 c-3 -42 -6 -47 -33 -55 -41 -11 -102 8 -136 41 -104 105 -6 284 138 250
53 -12 61 -11 39 6 -30 22 -114 19 -155 -6z"/>
<path d="M2392 1688 c-24 -24 -12 -57 43 -115 l55 -57 55 54 c38 38 55 62 55
80 0 50 -46 66 -85 30 l-22 -20 -23 20 c-26 22 -60 26 -78 8z m124 -52 c8 -8
14 -20 14 -26 0 -6 -6 -18 -14 -26 -8 -8 -20 -14 -26 -14 -13 0 -40 25 -40 36
0 11 32 44 42 44 5 0 16 -6 24 -14z"/>
<path d="M1675 1567 c-84 -49 -225 -148 -235 -166 -19 -36 -12 -79 19 -113 46
-51 80 -44 214 44 136 89 157 110 157 155 0 26 -8 43 -34 69 -40 40 -66 42
-121 11z m101 -56 c7 -13 10 -30 7 -39 -10 -24 -244 -173 -267 -170 -11 2 -27
15 -35 30 -20 35 -13 43 124 135 118 79 150 87 171 44z"/>
<path d="M3181 1562 c-68 -74 -47 -119 102 -217 63 -41 128 -80 144 -86 40
-13 78 2 103 43 28 45 25 80 -7 115 -42 44 -236 163 -277 170 -31 5 -40 1 -65
-25z m198 -102 c111 -73 121 -82 121 -110 0 -23 -6 -33 -25 -42 -22 -10 -34
-5 -105 37 -108 66 -174 117 -178 139 -5 22 25 56 49 56 9 0 72 -36 138 -80z"/>
<path d="M1759 1282 c-168 -199 -155 -182 -138 -193 8 -5 17 -8 20 -6 4 1 50
54 104 117 54 63 102 120 107 125 12 13 8 2 -68 -175 -61 -143 -65 -170 -28
-170 7 0 73 71 147 158 99 115 132 160 125 170 -6 6 -14 12 -18 12 -5 0 -45
-44 -91 -97 -114 -136 -114 -136 -94 -88 84 202 105 255 105 258 0 3 -11 12
-24 20 -23 16 -25 14 -147 -131z"/>
<path d="M3015 1369 c-41 -36 -46 -76 -16 -124 38 -61 187 -219 215 -228 65
-21 140 55 116 119 -11 28 -27 50 -79 110 l-32 36 -30 -28 c-32 -31 -33 -33
-19 -54 8 -13 11 -13 26 2 15 15 19 13 55 -28 22 -25 39 -53 39 -63 0 -28 -35
-54 -62 -47 -23 6 -187 191 -200 226 -9 24 18 60 45 60 11 0 33 -12 49 -27 22
-21 30 -24 42 -14 14 11 13 16 -1 37 -18 28 -62 54 -92 54 -11 0 -36 -14 -56
-31z"/>
<path d="M2166 1222 c-18 -17 -4 -40 29 -46 19 -4 35 -11 35 -15 0 -5 -23 -89
-50 -187 -51 -178 -52 -193 -15 -194 6 0 33 82 61 183 54 193 51 188 109 173
21 -6 25 -3 25 18 0 18 -7 25 -27 29 -16 4 -58 15 -95 26 -36 10 -69 17 -72
13z"/>
<path d="M2718 1206 c-37 -11 -70 -24 -73 -28 -6 -5 100 -394 110 -406 2 -2
39 7 84 19 60 16 81 26 81 39 0 27 -8 29 -70 10 l-60 -18 -21 70 c-11 39 -17
74 -12 78 4 3 27 12 50 18 34 10 40 16 36 32 -5 21 -23 20 -82 -2 -13 -5 -25
-7 -26 -6 -1 2 -11 34 -23 71 -14 48 -17 69 -9 72 110 34 115 36 110 55 -6 24
-10 24 -95 -4z"/>
<path d="M2390 955 l0 -215 25 0 c25 0 25 0 25 94 0 103 0 103 70 102 l35 -1
3 -97 c3 -97 3 -98 27 -98 25 0 25 0 25 103 0 56 -3 153 -7 215 -5 100 -8 112
-25 112 -16 0 -18 -9 -18 -95 l0 -95 -55 0 -55 0 0 95 c0 95 0 95 -25 95 l-25
0 0 -215z"/>
</g>
</svg>
